# xmcd
# 
# Track frame offsets:
#     150
#     17581
#     34861
#     54894
#     75638
#     94381
#     112072
#     129273
#     141613
#     160850
#     184283
#     200625
#     217492
#     232667
# 
# Disc length: 3357
# 
# Revision: 0
# Processed by: cddbd v1.5.2PL0 Copyright (c) Steve Scherf et al.
# Submitted via: fre:ac v1.0.31
# 
DISCID=c80d1b0e
DTITLE=Various Artist - 「ご注文はうさぎですか」キャラクターソング・セレクションアルバム　order the songs [Disc 2]
DYEAR=2016
DGENRE=Soundtrack
TTITLE0=チマメ隊 - ぴょん'sぷりんぷるん
TTITLE1=振り回され隊 - ハートぷるぷる事件です
TTITLE2=千夜（CV.佐藤聡美） - 月夜にお砂糖星
TTITLE3=ココア（CV.佐倉綾音） - チョコリズムチョコルール
TTITLE4=リゼ（CV.種田梨沙） - ミカヅキドロップ
TTITLE5=シャロ（CV.内田真礼） - 麗しのShooting star
TTITLE6=チノ（CV.水瀬いのり） - 魔法少女チノ
TTITLE7=川田瑠夏 - Theme of Phantom Thief Lapin
TTITLE8=シャロ（CV.内田真礼） - 怪盗ラパン-The Phantom Thief Lapin-
TTITLE9=青山ブルーマウンテン（CV.早見沙織） - うさぎになったバリスタ
TTITLE10=チノ（CV.水瀬いのり） - 出かけましょうと答えましょう
TTITLE11=ココア＆チノ - 全天候型いらっしゃいませ
TTITLE12=Petit Rabbit's - 一匙のお姫様物語（あいすくりーむふぁんたじあ）
TTITLE13=Petit Rabbit's - Daydream café
EXTD=
EXTT0=
EXTT1=
EXTT2=
EXTT3=
EXTT4=
EXTT5=
EXTT6=
EXTT7=
EXTT8=
EXTT9=
EXTT10=
EXTT11=
EXTT12=
EXTT13=
PLAYORDER=
